<svg xmlns="http://www.w3.org/2000/svg" xmlns:xlink="http://www.w3.org/1999/xlink" xmlns:s="https://github.com/nturley/netlistsvg" width="452" height="704">
  <style>svg {
    stroke:#000;
    fill:none;
  }
  text {
    fill:#000;
    stroke:none;
    font-size:10px;
    font-weight: bold;
    font-family: "Courier New", monospace;
  }
  .nodelabel {
    text-anchor: middle;
  }
  .inputPortLabel {
    text-anchor: end;
  }
  .splitjoinBody {
    fill:#000;
  }</style>
  <g s:type="generic" transform="translate(168,246.5)" s:width="30" s:height="40" id="cell_u_cpu">
    <text x="15" y="-4" class="nodelabel cell_u_cpu" s:attribute="ref">$paramod$ca0d8f4d74c2bb3d4a722a6a76b1b3a8e955b535\mc14500_cpu</text>
    <rect width="30" height="220" s:generic="body" class="cell_u_cpu"/>
    <g transform="translate(0,10)" s:x="0" s:y="10" s:pid="in0" id="port_u_cpu~clk">
      <text x="-3" y="-4" class="inputPortLabel cell_u_cpu">clk</text>
    </g>
    <g transform="translate(0,30)" s:x="0" s:y="10" s:pid="in0" id="port_u_cpu~io_in_data">
      <text x="-3" y="-4" class="inputPortLabel cell_u_cpu">io_in_data</text>
    </g>
    <g transform="translate(0,50)" s:x="0" s:y="10" s:pid="in0" id="port_u_cpu~rst_n">
      <text x="-3" y="-4" class="inputPortLabel cell_u_cpu">rst_n</text>
    </g>
    <g transform="translate(30,10)" s:x="30" s:y="10" s:pid="out0" id="port_u_cpu~debug_flag_c">
      <text x="5" y="-4" style="fill:#000; stroke:none" class="cell_u_cpu">debug_flag_c</text>
    </g>
    <g transform="translate(30,30)" s:x="30" s:y="10" s:pid="out0" id="port_u_cpu~debug_flag_v">
      <text x="5" y="-4" style="fill:#000; stroke:none" class="cell_u_cpu">debug_flag_v</text>
    </g>
    <g transform="translate(30,50)" s:x="30" s:y="10" s:pid="out0" id="port_u_cpu~debug_flag_z">
      <text x="5" y="-4" style="fill:#000; stroke:none" class="cell_u_cpu">debug_flag_z</text>
    </g>
    <g transform="translate(30,70)" s:x="30" s:y="10" s:pid="out0" id="port_u_cpu~debug_halted">
      <text x="5" y="-4" style="fill:#000; stroke:none" class="cell_u_cpu">debug_halted</text>
    </g>
    <g transform="translate(30,90)" s:x="30" s:y="10" s:pid="out0" id="port_u_cpu~debug_pc">
      <text x="5" y="-4" style="fill:#000; stroke:none" class="cell_u_cpu">debug_pc</text>
    </g>
    <g transform="translate(30,110)" s:x="30" s:y="10" s:pid="out0" id="port_u_cpu~debug_ram_addr">
      <text x="5" y="-4" style="fill:#000; stroke:none" class="cell_u_cpu">debug_ram_addr</text>
    </g>
    <g transform="translate(30,130)" s:x="30" s:y="10" s:pid="out0" id="port_u_cpu~debug_ram_wdata">
      <text x="5" y="-4" style="fill:#000; stroke:none" class="cell_u_cpu">debug_ram_wdata</text>
    </g>
    <g transform="translate(30,150)" s:x="30" s:y="10" s:pid="out0" id="port_u_cpu~debug_ram_we">
      <text x="5" y="-4" style="fill:#000; stroke:none" class="cell_u_cpu">debug_ram_we</text>
    </g>
    <g transform="translate(30,170)" s:x="30" s:y="10" s:pid="out0" id="port_u_cpu~debug_rr">
      <text x="5" y="-4" style="fill:#000; stroke:none" class="cell_u_cpu">debug_rr</text>
    </g>
    <g transform="translate(30,190)" s:x="30" s:y="10" s:pid="out0" id="port_u_cpu~io_out_data">
      <text x="5" y="-4" style="fill:#000; stroke:none" class="cell_u_cpu">io_out_data</text>
    </g>
    <g transform="translate(30,210)" s:x="30" s:y="10" s:pid="out0" id="port_u_cpu~io_out_valid">
      <text x="5" y="-4" style="fill:#000; stroke:none" class="cell_u_cpu">io_out_valid</text>
    </g>
  </g>
  <g s:type="inputExt" transform="translate(12,247)" s:width="30" s:height="20" id="cell_clk">
    <text x="15" y="-4" class="nodelabel cell_clk" s:attribute="ref">clk</text>
    <s:alias val="$_inputExt_"/>
    <path d="M0,0 L0,20 L15,20 L30,10 L15,0 Z" class="cell_clk"/>
    <g s:x="28" s:y="10" s:pid="Y"/>
  </g>
  <g s:type="inputExt" transform="translate(12,377)" s:width="30" s:height="20" id="cell_rst_n">
    <text x="15" y="-4" class="nodelabel cell_rst_n" s:attribute="ref">rst_n</text>
    <s:alias val="$_inputExt_"/>
    <path d="M0,0 L0,20 L15,20 L30,10 L15,0 Z" class="cell_rst_n"/>
    <g s:x="28" s:y="10" s:pid="Y"/>
  </g>
  <g s:type="outputExt" transform="translate(350,542)" s:width="30" s:height="20" id="cell_debug_rr">
    <text x="15" y="-4" class="nodelabel cell_debug_rr" s:attribute="ref">debug_rr</text>
    <s:alias val="$_outputExt_"/>
    <path d="M30,0 L30,20 L15,20 L0,10 L15,0 Z" class="cell_debug_rr"/>
    <g s:x="0" s:y="10" s:pid="A"/>
  </g>
  <g s:type="outputExt" transform="translate(350,282)" s:width="30" s:height="20" id="cell_debug_pc">
    <text x="15" y="-4" class="nodelabel cell_debug_pc" s:attribute="ref">debug_pc</text>
    <s:alias val="$_outputExt_"/>
    <path d="M30,0 L30,20 L15,20 L0,10 L15,0 Z" class="cell_debug_pc"/>
    <g s:x="0" s:y="10" s:pid="A"/>
  </g>
  <g s:type="outputExt" transform="translate(350,152)" s:width="30" s:height="20" id="cell_debug_flag_z">
    <text x="15" y="-4" class="nodelabel cell_debug_flag_z" s:attribute="ref">debug_flag_z</text>
    <s:alias val="$_outputExt_"/>
    <path d="M30,0 L30,20 L15,20 L0,10 L15,0 Z" class="cell_debug_flag_z"/>
    <g s:x="0" s:y="10" s:pid="A"/>
  </g>
  <g s:type="outputExt" transform="translate(350,22)" s:width="30" s:height="20" id="cell_debug_flag_c">
    <text x="15" y="-4" class="nodelabel cell_debug_flag_c" s:attribute="ref">debug_flag_c</text>
    <s:alias val="$_outputExt_"/>
    <path d="M30,0 L30,20 L15,20 L0,10 L15,0 Z" class="cell_debug_flag_c"/>
    <g s:x="0" s:y="10" s:pid="A"/>
  </g>
  <g s:type="outputExt" transform="translate(350,87)" s:width="30" s:height="20" id="cell_debug_flag_v">
    <text x="15" y="-4" class="nodelabel cell_debug_flag_v" s:attribute="ref">debug_flag_v</text>
    <s:alias val="$_outputExt_"/>
    <path d="M30,0 L30,20 L15,20 L0,10 L15,0 Z" class="cell_debug_flag_v"/>
    <g s:x="0" s:y="10" s:pid="A"/>
  </g>
  <g s:type="outputExt" transform="translate(350,217)" s:width="30" s:height="20" id="cell_debug_halted">
    <text x="15" y="-4" class="nodelabel cell_debug_halted" s:attribute="ref">debug_halted</text>
    <s:alias val="$_outputExt_"/>
    <path d="M30,0 L30,20 L15,20 L0,10 L15,0 Z" class="cell_debug_halted"/>
    <g s:x="0" s:y="10" s:pid="A"/>
  </g>
  <g s:type="outputExt" transform="translate(350,607)" s:width="30" s:height="20" id="cell_io_out_data">
    <text x="15" y="-4" class="nodelabel cell_io_out_data" s:attribute="ref">io_out_data</text>
    <s:alias val="$_outputExt_"/>
    <path d="M30,0 L30,20 L15,20 L0,10 L15,0 Z" class="cell_io_out_data"/>
    <g s:x="0" s:y="10" s:pid="A"/>
  </g>
  <g s:type="outputExt" transform="translate(350,672)" s:width="30" s:height="20" id="cell_io_out_valid">
    <text x="15" y="-4" class="nodelabel cell_io_out_valid" s:attribute="ref">io_out_valid</text>
    <s:alias val="$_outputExt_"/>
    <path d="M30,0 L30,20 L15,20 L0,10 L15,0 Z" class="cell_io_out_valid"/>
    <g s:x="0" s:y="10" s:pid="A"/>
  </g>
  <g s:type="inputExt" transform="translate(12,312)" s:width="30" s:height="20" id="cell_io_in_data">
    <text x="15" y="-4" class="nodelabel cell_io_in_data" s:attribute="ref">io_in_data</text>
    <s:alias val="$_inputExt_"/>
    <path d="M0,0 L0,20 L15,20 L30,10 L15,0 Z" class="cell_io_in_data"/>
    <g s:x="28" s:y="10" s:pid="Y"/>
  </g>
  <g s:type="outputExt" transform="translate(350,347)" s:width="30" s:height="20" id="cell_debug_ram_addr">
    <text x="15" y="-4" class="nodelabel cell_debug_ram_addr" s:attribute="ref">debug_ram_addr</text>
    <s:alias val="$_outputExt_"/>
    <path d="M30,0 L30,20 L15,20 L0,10 L15,0 Z" class="cell_debug_ram_addr"/>
    <g s:x="0" s:y="10" s:pid="A"/>
  </g>
  <g s:type="outputExt" transform="translate(350,412)" s:width="30" s:height="20" id="cell_debug_ram_wdata">
    <text x="15" y="-4" class="nodelabel cell_debug_ram_wdata" s:attribute="ref">debug_ram_wdata</text>
    <s:alias val="$_outputExt_"/>
    <path d="M30,0 L30,20 L15,20 L0,10 L15,0 Z" class="cell_debug_ram_wdata"/>
    <g s:x="0" s:y="10" s:pid="A"/>
  </g>
  <g s:type="outputExt" transform="translate(350,477)" s:width="30" s:height="20" id="cell_debug_ram_we">
    <text x="15" y="-4" class="nodelabel cell_debug_ram_we" s:attribute="ref">debug_ram_we</text>
    <s:alias val="$_outputExt_"/>
    <path d="M30,0 L30,20 L15,20 L0,10 L15,0 Z" class="cell_debug_ram_we"/>
    <g s:x="0" s:y="10" s:pid="A"/>
  </g>
  <line x1="40" x2="168" y1="257" y2="257" class="net_2"/>
  <line x1="40" x2="82" y1="322" y2="322" class="net_33,34,35,36,37,38,39,40"/>
  <line x1="82" x2="82" y1="322" y2="277" class="net_33,34,35,36,37,38,39,40"/>
  <line x1="82" x2="168" y1="277" y2="277" class="net_33,34,35,36,37,38,39,40"/>
  <line x1="40" x2="92" y1="387" y2="387" class="net_3"/>
  <line x1="92" x2="92" y1="387" y2="297" class="net_3"/>
  <line x1="92" x2="168" y1="297" y2="297" class="net_3"/>
  <line x1="199" x2="320" y1="417" y2="417" class="net_4,5,6,7,8,9,10,11"/>
  <line x1="320" x2="320" y1="417" y2="552" class="net_4,5,6,7,8,9,10,11"/>
  <line x1="320" x2="350" y1="552" y2="552" class="net_4,5,6,7,8,9,10,11"/>
  <line x1="199" x2="340" y1="337" y2="337" class="net_12,13,14,15,16,17,18,19"/>
  <line x1="340" x2="340" y1="337" y2="292" class="net_12,13,14,15,16,17,18,19"/>
  <line x1="340" x2="350" y1="292" y2="292" class="net_12,13,14,15,16,17,18,19"/>
  <line x1="199" x2="320" y1="297" y2="297" class="net_20"/>
  <line x1="320" x2="320" y1="297" y2="162" class="net_20"/>
  <line x1="320" x2="350" y1="162" y2="162" class="net_20"/>
  <line x1="199" x2="300" y1="257" y2="257" class="net_21"/>
  <line x1="300" x2="300" y1="257" y2="32" class="net_21"/>
  <line x1="300" x2="350" y1="32" y2="32" class="net_21"/>
  <line x1="199" x2="310" y1="277" y2="277" class="net_22"/>
  <line x1="310" x2="310" y1="277" y2="97" class="net_22"/>
  <line x1="310" x2="350" y1="97" y2="97" class="net_22"/>
  <line x1="199" x2="330" y1="317" y2="317" class="net_23"/>
  <line x1="330" x2="330" y1="317" y2="227" class="net_23"/>
  <line x1="330" x2="350" y1="227" y2="227" class="net_23"/>
  <line x1="199" x2="310" y1="437" y2="437" class="net_24,25,26,27,28,29,30,31"/>
  <line x1="310" x2="310" y1="437" y2="617" class="net_24,25,26,27,28,29,30,31"/>
  <line x1="310" x2="350" y1="617" y2="617" class="net_24,25,26,27,28,29,30,31"/>
  <line x1="199" x2="300" y1="457" y2="457" class="net_32"/>
  <line x1="300" x2="300" y1="457" y2="682" class="net_32"/>
  <line x1="300" x2="350" y1="682" y2="682" class="net_32"/>
  <line x1="199" x2="350" y1="357" y2="357" class="net_41,42,43,44,45,46,47,48"/>
  <line x1="199" x2="340" y1="377" y2="377" class="net_49,50,51,52,53,54,55,56"/>
  <line x1="340" x2="340" y1="377" y2="422" class="net_49,50,51,52,53,54,55,56"/>
  <line x1="340" x2="350" y1="422" y2="422" class="net_49,50,51,52,53,54,55,56"/>
  <line x1="199" x2="330" y1="397" y2="397" class="net_57"/>
  <line x1="330" x2="330" y1="397" y2="487" class="net_57"/>
  <line x1="330" x2="350" y1="487" y2="487" class="net_57"/>
</svg>
